# xmcd
#
# Track frame offsets: 
#        150
#        19665
#        34242
#        43542
#        66060
#        76635
#        107437
#        118800
#        129400
#        141167
#        161377
#        187230
#
# Disc length: 2761 seconds
#
# Revision: 0
# Processed by: cddbd v1.5.2PL0 Copyright (c) Steve Scherf et al.
# Submitted via: ExactAudioCopy v1.0b3
#
DISCID=980ac70c
DTITLE=Kalle Sändare - Idag är det sol
DYEAR=1997
DGENRE=
TTITLE0=Helge Bältes Orkester
TTITLE1=Saab-flotten
TTITLE2=Värdshuset Mannaminne
TTITLE3=Moster Kråkas Pannmur
TTITLE4=Musik för köket
TTITLE5=Vi Spinner Spann
TTITLE6=Gårdsmuseet
TTITLE7=Bowling
TTITLE8=Goyna Voita
TTITLE9=Ford Escort
TTITLE10=Kepsföreningen I-III
TTITLE11=Blåsinstrument Köpes
EXTD=
EXTT0=
EXTT1=
EXTT2=
EXTT3=
EXTT4=
EXTT5=
EXTT6=
EXTT7=
EXTT8=
EXTT9=
EXTT10=
EXTT11=
PLAYORDER=
